<svg xmlns="http://www.w3.org/2000/svg" version="1.1" xmlns:xlink="http://www.w3.org/1999/xlink" width="128" height="128"><svg xmlns="http://www.w3.org/2000/svg" width="128" height="128" viewBox="0 0 24 24"><g fill="none" stroke="#4f46e5" stroke-linecap="round" stroke-width="1.5"><path d="M4 6V3.6a.6.6 0 0 1 .6-.6h14.8a.6.6 0 0 1 .6.6V6M4 18v2.4a.6.6 0 0 0 .6.6h14.8a.6.6 0 0 0 .6-.6V18"></path><path stroke-linejoin="round" d="M13.5 15V9h2.4a.6.6 0 0 1 .6.6v.9A1.5 1.5 0 0 1 15 12v0"></path><path stroke-linejoin="round" d="M13.5 15h2.4a.6.6 0 0 0 .6-.6v-.9A1.5 1.5 0 0 0 15 12v0h-1.5m6 3v-3m0 0V9h3v3zm-18-3v6L3 12l1.5 3V9m6 0h-3v6h3m-3-3h2"></path></g></svg><style>@media (prefers-color-scheme: light) { :root { filter: none; } }
@media (prefers-color-scheme: dark) { :root { filter: contrast(0) brightness(3); } }
</style></svg>
